<svg xmlns="http://www.w3.org/2000/svg" viewBox="0 0 960 720" role="img" aria-label="Home healthcare room with medical bed and oxygen support">
  <rect width="960" height="720" fill="#eef8f6"/>
  <rect x="88" y="94" width="784" height="500" rx="28" fill="#fff" stroke="#047068" stroke-opacity=".18" stroke-width="4"/>
  <rect x="150" y="346" width="470" height="92" rx="16" fill="#dcefeb"/>
  <rect x="174" y="286" width="178" height="76" rx="18" fill="#fff" stroke="#047068" stroke-width="8"/>
  <rect x="132" y="428" width="540" height="42" rx="12" fill="#047068"/>
  <rect x="178" y="470" width="28" height="82" rx="8" fill="#034f4a"/>
  <rect x="604" y="470" width="28" height="82" rx="8" fill="#034f4a"/>
  <rect x="690" y="236" width="74" height="260" rx="28" fill="#fff" stroke="#047068" stroke-width="8"/>
  <rect x="708" y="278" width="38" height="86" rx="16" fill="#c7eee8"/>
  <path d="M726 236v-54m-28 0h56" stroke="#047068" stroke-width="12" stroke-linecap="round"/>
  <circle cx="760" cy="512" r="26" fill="#047068"/>
  <circle cx="236" cy="204" r="44" fill="#c7eee8"/>
  <path d="M236 180v48m-24-24h48" stroke="#047068" stroke-width="12" stroke-linecap="round"/>
  <path d="M118 602h724" stroke="#047068" stroke-opacity=".18" stroke-width="8" stroke-linecap="round"/>
</svg>
